<?xml version="1.0" standalone="no"?>
<!DOCTYPE svg PUBLIC "-//W3C//DTD SVG 20010904//EN"
 "http://www.w3.org/TR/2001/REC-SVG-20010904/DTD/svg10.dtd">
<svg version="1.0" xmlns="http://www.w3.org/2000/svg"
 width="154.000000pt" height="154.000000pt" viewBox="0 0 154.000000 154.000000"
 preserveAspectRatio="xMidYMid meet">

<g transform="translate(0.000000,154.000000) scale(0.100000,-0.100000)"
fill="#000000" stroke="none">
<path d="M70 770 l0 -710 708 2 707 3 3 708 2 707 -710 0 -710 0 0 -710z
m1268 3 l-3 -558 -557 -3 -558 -2 0 560 0 560 560 0 560 0 -2 -557z"/>
<path d="M320 1150 c0 -73 2 -80 20 -80 16 0 20 7 20 30 0 25 4 30 25 30 16 0
25 6 25 15 0 9 -9 15 -25 15 -18 0 -25 5 -25 20 0 16 7 20 30 20 20 0 30 5 30
15 0 11 -12 15 -50 15 l-50 0 0 -80z"/>
<path d="M687 1140 c-189 -48 -315 -248 -277 -437 36 -177 168 -293 341 -301
125 -6 242 41 305 124 l24 31 -61 43 -61 42 -31 -30 c-49 -46 -95 -65 -157
-65 -114 0 -196 80 -207 205 -13 136 81 248 207 248 53 0 120 -29 155 -66 l25
-26 60 38 c33 22 60 44 60 51 0 22 -102 102 -158 123 -65 25 -169 34 -225 20z"/>
</g>
</svg>
